<svg width="28" height="20" viewBox="0 0 28 20" fill="none" xmlns="http://www.w3.org/2000/svg">
<path d="M3.91797 16.4492C3.80078 16.6836 3.66016 16.8906 3.49609 17.0703C3.33203 17.25 3.15625 17.3984 2.96875 17.5156C2.78125 17.6328 2.58984 17.7188 2.39453 17.7734C2.19922 17.8359 2.01562 17.8672 1.84375 17.8672C1.59375 17.8672 1.38281 17.8008 1.21094 17.668C1.03906 17.543 0.953125 17.3555 0.953125 17.1055C0.953125 17.0195 0.960938 16.9258 0.976562 16.8242C1 16.7148 1.04297 16.5977 1.10547 16.4727C1.69922 15.2461 2.28906 14.0664 2.875 12.9336C3.46875 11.8008 4.03906 10.7422 4.58594 9.75781C5.14062 8.77344 5.66406 7.87891 6.15625 7.07422C6.64844 6.26172 7.09375 5.57031 7.49219 5C7.89844 4.42188 8.24219 3.97656 8.52344 3.66406C8.8125 3.35156 9.02344 3.19531 9.15625 3.19531C9.42969 3.19531 9.63281 3.27344 9.76562 3.42969C9.89844 3.58594 9.96484 3.76953 9.96484 3.98047C9.96484 4.15234 9.92188 4.32422 9.83594 4.49609C9.64062 4.89453 9.41797 5.34766 9.16797 5.85547C8.92578 6.35547 8.66797 6.89062 8.39453 7.46094C8.12109 8.02344 7.83594 8.60938 7.53906 9.21875C7.24219 9.82031 6.94922 10.4219 6.66016 11.0234C6.37109 11.6172 6.08594 12.1953 5.80469 12.7578C5.53125 13.3125 5.27344 13.8281 5.03125 14.3047C4.79688 14.7812 4.58203 15.207 4.38672 15.582C4.19922 15.9492 4.04297 16.2383 3.91797 16.4492ZM17.6172 2.73828C17.6172 2.87891 17.5625 3.07812 17.4531 3.33594C17.3516 3.58594 17.2031 3.83203 17.0078 4.07422C16.8203 4.31641 16.5898 4.52734 16.3164 4.70703C16.0508 4.88672 15.7539 4.97656 15.4258 4.97656C15.3477 4.97656 15.25 4.97266 15.1328 4.96484C15.0156 4.94922 14.8984 4.91797 14.7812 4.87109C14.6719 4.82422 14.5781 4.75781 14.5 4.67188C14.4219 4.58594 14.3828 4.47266 14.3828 4.33203C14.3828 4.26172 14.418 4.16406 14.4883 4.03906C14.5586 3.90625 14.6328 3.76562 14.7109 3.61719C14.7969 3.46875 14.875 3.32422 14.9453 3.18359C15.0156 3.04297 15.0508 2.92578 15.0508 2.83203C15.0508 2.56641 14.8633 2.375 14.4883 2.25781C14.1133 2.13281 13.4844 2.07031 12.6016 2.07031C11.7188 2.10156 10.9219 2.15625 10.2109 2.23438C9.5 2.30469 8.84375 2.39844 8.24219 2.51562C7.64062 2.625 7.07812 2.75391 6.55469 2.90234C6.03125 3.05078 5.51562 3.21094 5.00781 3.38281C4.5 3.54688 3.98438 3.72656 3.46094 3.92188C2.94531 4.10938 2.39453 4.30078 1.80859 4.49609C1.75391 4.51172 1.69922 4.52734 1.64453 4.54297C1.59766 4.55859 1.55469 4.56641 1.51562 4.56641C1.39062 4.56641 1.27734 4.53906 1.17578 4.48438C1.07422 4.42969 0.984375 4.35547 0.90625 4.26172C0.835938 4.16797 0.777344 4.0625 0.730469 3.94531C0.691406 3.82812 0.671875 3.70703 0.671875 3.58203C0.671875 3.37891 0.835938 3.15234 1.16406 2.90234C1.49219 2.64453 1.94141 2.38672 2.51172 2.12891C3.08203 1.87109 3.75391 1.62109 4.52734 1.37891C5.30078 1.12891 6.13281 0.910156 7.02344 0.722656C7.92188 0.527344 8.85547 0.375 9.82422 0.265625C10.8008 0.148438 11.7734 0.0898438 12.7422 0.0898438C13.5781 0.0898438 14.3008 0.15625 14.9102 0.289062C15.5195 0.421875 16.0234 0.605469 16.4219 0.839844C16.8203 1.07422 17.1172 1.35547 17.3125 1.68359C17.5078 2.00391 17.6094 2.35547 17.6172 2.73828ZM24.2148 11.9023C24.1836 11.9414 24.125 12.0664 24.0391 12.2773C23.9609 12.4805 23.8633 12.7383 23.7461 13.0508C23.6289 13.3633 23.5 13.7148 23.3594 14.1055C23.2266 14.4883 23.0859 14.8828 22.9375 15.2891C22.7969 15.6875 22.6602 16.082 22.5273 16.4727C22.3945 16.8555 22.2734 17.2031 22.1641 17.5156C22.0625 17.8281 21.9766 18.0898 21.9062 18.3008C21.8359 18.5117 21.793 18.6367 21.7773 18.6758C21.7383 18.8008 21.6758 18.9375 21.5898 19.0859C21.5039 19.2422 21.4023 19.3867 21.2852 19.5195C21.168 19.6602 21.0391 19.7734 20.8984 19.8594C20.7578 19.9531 20.6133 20 20.4648 20C20.2148 20 20.0312 19.9297 19.9141 19.7891C19.8047 19.6484 19.75 19.3906 19.75 19.0156C19.75 18.9609 19.75 18.9062 19.75 18.8516C19.75 18.7969 19.7539 18.7383 19.7617 18.6758C19.7695 18.5508 19.8281 18.3164 19.9375 17.9727C20.0469 17.6289 20.1758 17.2422 20.3242 16.8125C20.4805 16.375 20.6445 15.9258 20.8164 15.4648C20.9961 14.9961 21.1562 14.5781 21.2969 14.2109C20.8828 14.6016 20.4336 14.9922 19.9492 15.3828C19.4648 15.7656 18.9688 16.1133 18.4609 16.4258C17.9531 16.7305 17.4414 16.9805 16.9258 17.1758C16.4102 17.3711 15.9141 17.4688 15.4375 17.4688C14.8906 17.4688 14.418 17.3672 14.0195 17.1641C13.6289 16.9609 13.3047 16.6953 13.0469 16.3672C12.7891 16.0391 12.5977 15.668 12.4727 15.2539C12.3477 14.8398 12.2852 14.4258 12.2852 14.0117C12.2852 13.957 12.2852 13.9062 12.2852 13.8594C12.2852 13.8125 12.2891 13.7656 12.2969 13.7188C12.3438 12.9688 12.4688 12.1992 12.6719 11.4102C12.8828 10.6211 13.1562 9.83594 13.4922 9.05469C13.8281 8.27344 14.2148 7.51172 14.6523 6.76953C15.0977 6.01953 15.5781 5.3125 16.0938 4.64844C16.6172 3.98438 17.1719 3.375 17.7578 2.82031C18.3438 2.25781 18.9453 1.77734 19.5625 1.37891C20.1797 0.972656 20.8008 0.65625 21.4258 0.429688C22.0586 0.203125 22.6836 0.0898438 23.3008 0.0898438C24.0117 0.0898438 24.6992 0.253906 25.3633 0.582031C26.0273 0.910156 26.6484 1.44141 27.2266 2.17578C27.3594 2.33984 27.4414 2.50781 27.4727 2.67969C27.5117 2.84375 27.5312 3 27.5312 3.14844C27.5312 3.5 27.4297 3.77734 27.2266 3.98047C27.0312 4.18359 26.7969 4.28516 26.5234 4.28516C26.2734 4.28516 26.0391 4.17578 25.8203 3.95703C25.6094 3.73047 25.3711 3.41016 25.1055 2.99609C24.8555 2.62109 24.5781 2.35156 24.2734 2.1875C23.9766 2.01562 23.6523 1.92969 23.3008 1.92969C22.7539 1.92969 22.168 2.12109 21.543 2.50391C20.9258 2.88672 20.3125 3.39453 19.7031 4.02734C19.0938 4.65234 18.5078 5.37109 17.9453 6.18359C17.3906 6.98828 16.8984 7.81641 16.4688 8.66797C16.0391 9.51172 15.6953 10.3477 15.4375 11.1758C15.1875 11.9961 15.0625 12.7344 15.0625 13.3906C15.0625 13.6094 15.0781 13.8359 15.1094 14.0703C15.1484 14.2969 15.2148 14.5039 15.3086 14.6914C15.4102 14.8789 15.543 15.0352 15.707 15.1602C15.8789 15.2773 16.0938 15.3359 16.3516 15.3359C16.6406 15.3359 16.9688 15.2539 17.3359 15.0898C17.7031 14.9258 18.082 14.7109 18.4727 14.4453C18.8711 14.1797 19.2695 13.8789 19.668 13.543C20.0664 13.207 20.4375 12.8672 20.7812 12.5234C21.125 12.1797 21.4297 11.8516 21.6953 11.5391C21.9609 11.2188 22.1602 10.9414 22.293 10.707L23.3828 7.95312C23.5156 7.65625 23.6875 7.44531 23.8984 7.32031C24.1172 7.19531 24.3398 7.13281 24.5664 7.13281C24.6758 7.13281 24.7852 7.14844 24.8945 7.17969C25.0039 7.21094 25.1016 7.26172 25.1875 7.33203C25.2734 7.39453 25.3398 7.48047 25.3867 7.58984C25.4414 7.69141 25.4688 7.8125 25.4688 7.95312C25.4688 8.32812 25.4297 8.67969 25.3516 9.00781C25.2734 9.33594 25.1719 9.65625 25.0469 9.96875C24.9297 10.2812 24.7969 10.5977 24.6484 10.918C24.5 11.2305 24.3555 11.5586 24.2148 11.9023Z" fill="black"/>
</svg>
